<?xml version="1.0" encoding="UTF-8" standalone="no"?><svg xmlns="http://www.w3.org/2000/svg" xmlns:xlink="http://www.w3.org/1999/xlink" contentScriptType="application/ecmascript" contentStyleType="text/css" height="1292px" preserveAspectRatio="none" style="width:582px;height:1292px;background:#FFFFFF;" version="1.1" viewBox="0 0 582 1292" width="582px" zoomAndPan="magnify"><defs><filter height="300%" id="f5a3r0tev2ff5" width="300%" x="-1" y="-1"><feGaussianBlur result="blurOut" stdDeviation="2.0"/><feColorMatrix in="blurOut" result="blurOut2" type="matrix" values="0 0 0 0 0 0 0 0 0 0 0 0 0 0 0 0 0 0 .4 0"/><feOffset dx="4.0" dy="4.0" in="blurOut2" result="blurOut3"/><feBlend in="SourceGraphic" in2="blurOut3" mode="normal"/></filter></defs><g><!--MD5=[11401b09369cd2555474c5c53948086b]
cluster Initializing--><rect fill="#FEFECE" filter="url(#f5a3r0tev2ff5)" height="500" rx="12.5" ry="12.5" style="stroke:#A80036;stroke-width:1.5;" width="453" x="22" y="7"/><rect fill="#FFFFFF" height="466.3906" rx="12.5" ry="12.5" style="stroke:#FFFFFF;stroke-width:1.0;" width="447" x="25" y="37.6094"/><line style="stroke:#A80036;stroke-width:1.5;" x1="22" x2="475" y1="34.6094" y2="34.6094"/><text fill="#000000" font-family="sans-serif" font-size="14" lengthAdjust="spacing" textLength="60" x="218.5" y="25.5332">Initializing</text><ellipse cx="48" cy="107" fill="#000000" filter="url(#f5a3r0tev2ff5)" rx="10" ry="10" style="stroke:none;stroke-width:1.0;"/><g id="Initializing.NoPower"><rect fill="#FEFECE" filter="url(#f5a3r0tev2ff5)" height="50" rx="12.5" ry="12.5" style="stroke:#A80036;stroke-width:1.5;" width="76" x="93" y="82"/><line style="stroke:#A80036;stroke-width:1.5;" x1="93" x2="169" y1="109.6094" y2="109.6094"/><text fill="#000000" font-family="sans-serif" font-size="14" lengthAdjust="spacing" textLength="56" x="103" y="101.5332">NoPower</text></g><polygon fill="#FEFECE" filter="url(#f5a3r0tev2ff5)" points="375,232,387,244,375,256,363,244,375,232" style="stroke:#A80036;stroke-width:1.5;"/><rect fill="#FEFECE" filter="url(#f5a3r0tev2ff5)" height="127.7031" rx="12.5" ry="12.5" style="stroke:#A80036;stroke-width:1.5;" width="168" x="291" y="43"/><rect fill="#FFFFFF" height="74" rx="12.5" ry="12.5" style="stroke:#FFFFFF;stroke-width:1.0;" width="162" x="294" y="93.7031"/><line style="stroke:#A80036;stroke-width:1.5;" x1="291" x2="459" y1="90.7031" y2="90.7031"/><line style="stroke:#A80036;stroke-width:1.5;" x1="291" x2="459" y1="70.6094" y2="70.6094"/><text fill="#000000" font-family="sans-serif" font-size="14" lengthAdjust="spacing" textLength="48" x="351" y="62.5332">Booting</text><text fill="#000000" font-family="sans-serif" font-size="12" lengthAdjust="spacing" textLength="143" x="296" y="83.0664">Intializing python and flask</text><g id="Initializing.Booting.Booting_h"><rect fill="#FF0000" filter="url(#f5a3r0tev2ff5)" height="50" rx="12.5" ry="12.5" style="stroke:#FF0000;stroke-width:1.5;" width="50" x="303" y="102.7031"/><line style="stroke:#FF0000;stroke-width:1.5;" x1="303" x2="353" y1="130.3125" y2="130.3125"/><text fill="#000000" font-family="sans-serif" font-size="14" lengthAdjust="spacing" textLength="0" x="330" y="122.2363"/></g><rect fill="#FEFECE" filter="url(#f5a3r0tev2ff5)" height="157.8906" rx="12.5" ry="12.5" style="stroke:#A80036;stroke-width:1.5;" width="151" x="121.5" y="333"/><rect fill="#FFFFFF" height="74" rx="12.5" ry="12.5" style="stroke:#FFFFFF;stroke-width:1.0;" width="145" x="124.5" y="413.8906"/><line style="stroke:#A80036;stroke-width:1.5;" x1="121.5" x2="272.5" y1="410.8906" y2="410.8906"/><line style="stroke:#A80036;stroke-width:1.5;" x1="121.5" x2="272.5" y1="360.6094" y2="360.6094"/><text fill="#000000" font-family="sans-serif" font-size="14" lengthAdjust="spacing" textLength="94" x="150" y="352.5332">Access_MODE</text><text fill="#000000" font-family="sans-serif" font-size="12" lengthAdjust="spacing" textLength="44" x="126.5" y="373.0664">10.0.0.5</text><text fill="#000000" font-family="sans-serif" font-size="12" lengthAdjust="spacing" textLength="76" x="126.5" y="388.1602">(cattoiio.local)</text><text fill="#000000" font-family="sans-serif" font-size="12" lengthAdjust="spacing" textLength="67" x="126.5" y="403.2539">(cattoiio.lan)</text><g id="Initializing.Access_MODE.Access_Mode_h"><rect fill="#FF00FF" filter="url(#f5a3r0tev2ff5)" height="50" rx="12.5" ry="12.5" style="stroke:#FF00FF;stroke-width:1.5;" width="50" x="133.5" y="422.8906"/><line style="stroke:#FF00FF;stroke-width:1.5;" x1="133.5" x2="183.5" y1="450.5" y2="450.5"/><text fill="#000000" font-family="sans-serif" font-size="14" lengthAdjust="spacing" textLength="0" x="160.5" y="442.4238"/></g><g id="Initializing.Access_MODE.Access_Mode_l"><rect fill="#800080" filter="url(#f5a3r0tev2ff5)" height="50" rx="12.5" ry="12.5" style="stroke:#800080;stroke-width:1.5;" width="50" x="201.5" y="422.8906"/><line style="stroke:#800080;stroke-width:1.5;" x1="201.5" x2="251.5" y1="450.5" y2="450.5"/><text fill="#000000" font-family="sans-serif" font-size="14" lengthAdjust="spacing" textLength="0" x="228.5" y="442.4238"/></g><!--MD5=[fe14588949a2632490909628628e3000]
link Access_Mode_h to Access_Mode_l--><path d="M183.73,465.3906 C187.98,466.6006 192.22,466.9306 196.46,466.3906 " fill="none" id="Access_Mode_h-to-Access_Mode_l" style="stroke:#000000;stroke-width:1.0;"/><polygon fill="#000000" points="201.44,465.3406,191.8102,463.2749,196.5466,466.3678,193.4537,471.1042,201.44,465.3406" style="stroke:#000000;stroke-width:1.0;"/><!--MD5=[3d7575094c047db3af8a3435081b2522]
reverse link Access_Mode_h to Access_Mode_l--><path d="M188.71,429.3706 C192.96,428.8506 197.2,429.2106 201.44,430.4406 " fill="none" id="Access_Mode_h-backto-Access_Mode_l" style="stroke:#000000;stroke-width:1.0;"/><polygon fill="#000000" points="183.73,430.3906,193.3481,432.5102,188.629,429.3908,191.7484,424.6718,183.73,430.3906" style="stroke:#000000;stroke-width:1.0;"/><rect fill="#FEFECE" filter="url(#f5a3r0tev2ff5)" height="157.8906" rx="12.5" ry="12.5" style="stroke:#A80036;stroke-width:1.5;" width="151" x="307.5" y="333"/><rect fill="#FFFFFF" height="74" rx="12.5" ry="12.5" style="stroke:#FFFFFF;stroke-width:1.0;" width="145" x="310.5" y="413.8906"/><line style="stroke:#A80036;stroke-width:1.5;" x1="307.5" x2="458.5" y1="410.8906" y2="410.8906"/><line style="stroke:#A80036;stroke-width:1.5;" x1="307.5" x2="458.5" y1="360.6094" y2="360.6094"/><text fill="#000000" font-family="sans-serif" font-size="14" lengthAdjust="spacing" textLength="75" x="345.5" y="352.5332">LAN_MODE</text><text fill="#000000" font-family="sans-serif" font-size="12" lengthAdjust="spacing" textLength="61" x="312.5" y="373.0664">192.168.x.x</text><text fill="#000000" font-family="sans-serif" font-size="12" lengthAdjust="spacing" textLength="76" x="312.5" y="388.1602">(cattoiio.local)</text><text fill="#000000" font-family="sans-serif" font-size="12" lengthAdjust="spacing" textLength="67" x="312.5" y="403.2539">(cattoiio.lan)</text><g id="Initializing.LAN_MODE.LAN_MODE_h"><rect fill="#00FF00" filter="url(#f5a3r0tev2ff5)" height="50" rx="12.5" ry="12.5" style="stroke:#00FF00;stroke-width:1.5;" width="50" x="319.5" y="422.8906"/><line style="stroke:#00FF00;stroke-width:1.5;" x1="319.5" x2="369.5" y1="450.5" y2="450.5"/><text fill="#000000" font-family="sans-serif" font-size="14" lengthAdjust="spacing" textLength="0" x="346.5" y="442.4238"/></g><g id="Initializing.LAN_MODE.LAN_MODE_l"><rect fill="#008000" filter="url(#f5a3r0tev2ff5)" height="50" rx="12.5" ry="12.5" style="stroke:#008000;stroke-width:1.5;" width="50" x="387.5" y="422.8906"/><line style="stroke:#008000;stroke-width:1.5;" x1="387.5" x2="437.5" y1="450.5" y2="450.5"/><text fill="#000000" font-family="sans-serif" font-size="14" lengthAdjust="spacing" textLength="0" x="414.5" y="442.4238"/></g><!--MD5=[53236f8a415721569024fd94a76e6851]
link LAN_MODE_h to LAN_MODE_l--><path d="M369.73,465.3906 C373.98,466.6006 378.22,466.9306 382.46,466.3906 " fill="none" id="LAN_MODE_h-to-LAN_MODE_l" style="stroke:#000000;stroke-width:1.0;"/><polygon fill="#000000" points="387.44,465.3406,377.8102,463.2749,382.5466,466.3678,379.4537,471.1042,387.44,465.3406" style="stroke:#000000;stroke-width:1.0;"/><!--MD5=[b33274df752ae324befeaeed8a958a10]
reverse link LAN_MODE_h to LAN_MODE_l--><path d="M374.99,447.8906 C379.14,447.8906 383.29,447.8906 387.44,447.8906 " fill="none" id="LAN_MODE_h-backto-LAN_MODE_l" style="stroke:#000000;stroke-width:1.0;"/><polygon fill="#000000" points="369.73,447.8906,378.73,451.8906,374.73,447.8906,378.73,443.8906,369.73,447.8906" style="stroke:#000000;stroke-width:1.0;"/><!--MD5=[b33274df752ae324befeaeed8a958a10]
reverse link LAN_MODE_h to LAN_MODE_l--><path d="M374.71,429.3706 C378.96,428.8506 383.2,429.2106 387.44,430.4406 " fill="none" id="LAN_MODE_h-backto-LAN_MODE_l-1" style="stroke:#000000;stroke-width:1.0;"/><polygon fill="#000000" points="369.73,430.3906,379.3481,432.5102,374.629,429.3908,377.7484,424.6718,369.73,430.3906" style="stroke:#000000;stroke-width:1.0;"/><rect fill="#FEFECE" filter="url(#f5a3r0tev2ff5)" height="710.9219" rx="12.5" ry="12.5" style="stroke:#A80036;stroke-width:1.5;" width="563.5" x="7" y="570"/><rect fill="#FFFFFF" height="677.3125" rx="12.5" ry="12.5" style="stroke:#FFFFFF;stroke-width:1.0;" width="557.5" x="10" y="600.6094"/><line style="stroke:#A80036;stroke-width:1.5;" x1="7" x2="570.5" y1="597.6094" y2="597.6094"/><text fill="#000000" font-family="sans-serif" font-size="14" lengthAdjust="spacing" textLength="125" x="226.25" y="589.5332">Cattoi.io Webserver</text><rect fill="#FEFECE" filter="url(#f5a3r0tev2ff5)" height="183.3125" rx="12.5" ry="12.5" style="stroke:#A80036;stroke-width:1.5;" width="537.5" x="19" y="609.6094"/><rect fill="#FFFFFF" height="149.7031" rx="12.5" ry="12.5" style="stroke:#FFFFFF;stroke-width:1.0;" width="531.5" x="22" y="640.2188"/><line style="stroke:#A80036;stroke-width:1.5;" x1="19" x2="556.5" y1="637.2188" y2="637.2188"/><text fill="#000000" font-family="sans-serif" font-size="14" lengthAdjust="spacing" textLength="100" x="237.75" y="629.1426">Profile Manager</text><rect fill="#FEFECE" filter="url(#f5a3r0tev2ff5)" height="127.7031" rx="12.5" ry="12.5" style="stroke:#A80036;stroke-width:1.5;" width="160" x="31" y="649.2188"/><rect fill="#FFFFFF" height="74" rx="12.5" ry="12.5" style="stroke:#FFFFFF;stroke-width:1.0;" width="154" x="34" y="699.9219"/><line style="stroke:#A80036;stroke-width:1.5;" x1="31" x2="191" y1="696.9219" y2="696.9219"/><line style="stroke:#A80036;stroke-width:1.5;" x1="31" x2="191" y1="676.8281" y2="676.8281"/><text fill="#000000" font-family="sans-serif" font-size="14" lengthAdjust="spacing" textLength="28" x="97" y="668.752">Shift</text><text fill="#000000" font-family="sans-serif" font-size="12" lengthAdjust="spacing" textLength="135" x="36" y="689.2852">Shift pattern left and right</text><g id="WebServer.ProfileManager.Shift.Shift_h"><rect fill="#0000FF" filter="url(#f5a3r0tev2ff5)" height="50" rx="12.5" ry="12.5" style="stroke:#0000FF;stroke-width:1.5;" width="50" x="43" y="708.9219"/><line style="stroke:#0000FF;stroke-width:1.5;" x1="43" x2="93" y1="736.5313" y2="736.5313"/><text fill="#000000" font-family="sans-serif" font-size="14" lengthAdjust="spacing" textLength="0" x="70" y="728.4551"/></g><rect fill="#FEFECE" filter="url(#f5a3r0tev2ff5)" height="127.7031" rx="12.5" ry="12.5" style="stroke:#A80036;stroke-width:1.5;" width="164" x="209" y="649.2188"/><rect fill="#FFFFFF" height="74" rx="12.5" ry="12.5" style="stroke:#FFFFFF;stroke-width:1.0;" width="158" x="212" y="699.9219"/><line style="stroke:#A80036;stroke-width:1.5;" x1="209" x2="373" y1="696.9219" y2="696.9219"/><line style="stroke:#A80036;stroke-width:1.5;" x1="209" x2="373" y1="676.8281" y2="676.8281"/><text fill="#000000" font-family="sans-serif" font-size="14" lengthAdjust="spacing" textLength="32" x="275" y="668.752">Peek</text><text fill="#000000" font-family="sans-serif" font-size="12" lengthAdjust="spacing" textLength="139" x="214" y="689.2852">Fade in and out randomly</text><g id="WebServer.ProfileManager.Peek.Peek_h"><rect fill="#00FFFF" filter="url(#f5a3r0tev2ff5)" height="50" rx="12.5" ry="12.5" style="stroke:#00FFFF;stroke-width:1.5;" width="50" x="221" y="708.9219"/><line style="stroke:#00FFFF;stroke-width:1.5;" x1="221" x2="271" y1="736.5313" y2="736.5313"/><text fill="#000000" font-family="sans-serif" font-size="14" lengthAdjust="spacing" textLength="0" x="248" y="728.4551"/></g><rect fill="#FEFECE" filter="url(#f5a3r0tev2ff5)" height="127.7031" rx="12.5" ry="12.5" style="stroke:#A80036;stroke-width:1.5;" width="151" x="391.5" y="649.2188"/><rect fill="#FFFFFF" height="74" rx="12.5" ry="12.5" style="stroke:#FFFFFF;stroke-width:1.0;" width="145" x="394.5" y="699.9219"/><line style="stroke:#A80036;stroke-width:1.5;" x1="391.5" x2="542.5" y1="696.9219" y2="696.9219"/><line style="stroke:#A80036;stroke-width:1.5;" x1="391.5" x2="542.5" y1="676.8281" y2="676.8281"/><text fill="#000000" font-family="sans-serif" font-size="14" lengthAdjust="spacing" textLength="19" x="457.5" y="668.752">Off</text><text fill="#000000" font-family="sans-serif" font-size="12" lengthAdjust="spacing" textLength="53" x="396.5" y="689.2852">Blink Red</text><g id="WebServer.ProfileManager.Off.Off_h"><rect fill="#FF0000" filter="url(#f5a3r0tev2ff5)" height="50" rx="12.5" ry="12.5" style="stroke:#FF0000;stroke-width:1.5;" width="50" x="403.5" y="708.9219"/><line style="stroke:#FF0000;stroke-width:1.5;" x1="403.5" x2="453.5" y1="736.5313" y2="736.5313"/><text fill="#000000" font-family="sans-serif" font-size="14" lengthAdjust="spacing" textLength="0" x="430.5" y="728.4551"/></g><g id="WebServer.ProfileManager.Off.Off_l"><rect fill="#800000" filter="url(#f5a3r0tev2ff5)" height="50" rx="12.5" ry="12.5" style="stroke:#800000;stroke-width:1.5;" width="50" x="471.5" y="708.9219"/><line style="stroke:#800000;stroke-width:1.5;" x1="471.5" x2="521.5" y1="736.5313" y2="736.5313"/><text fill="#000000" font-family="sans-serif" font-size="14" lengthAdjust="spacing" textLength="0" x="498.5" y="728.4551"/></g><!--MD5=[b86e59b8f6d3509d6ee68101d34d7d25]
link Off_h to Off_l--><path d="M453.73,733.9219 C457.88,733.9219 462.03,733.9219 466.19,733.9219 " fill="none" id="Off_h-to-Off_l" style="stroke:#000000;stroke-width:1.0;"/><polygon fill="#000000" points="471.44,733.9219,462.44,729.9219,466.44,733.9219,462.44,737.9219,471.44,733.9219" style="stroke:#000000;stroke-width:1.0;"/><rect fill="#FEFECE" filter="url(#f5a3r0tev2ff5)" height="436.3125" rx="12.5" ry="12.5" style="stroke:#A80036;stroke-width:1.5;" width="524" x="26" y="828.6094"/><rect fill="#FFFFFF" height="402.7031" rx="12.5" ry="12.5" style="stroke:#FFFFFF;stroke-width:1.0;" width="518" x="29" y="859.2188"/><line style="stroke:#A80036;stroke-width:1.5;" x1="26" x2="550" y1="856.2188" y2="856.2188"/><text fill="#000000" font-family="sans-serif" font-size="14" lengthAdjust="spacing" textLength="31" x="272.5" y="848.1426">SSID</text><g id="WebServer.SSID.RESCAN_ALL_SSID"><rect fill="#FEFECE" filter="url(#f5a3r0tev2ff5)" height="52.7031" rx="12.5" ry="12.5" style="stroke:#A80036;stroke-width:1.5;" width="198" x="116.5" y="994.7188"/><line style="stroke:#A80036;stroke-width:1.5;" x1="116.5" x2="314.5" y1="1022.3281" y2="1022.3281"/><text fill="#000000" font-family="sans-serif" font-size="14" lengthAdjust="spacing" textLength="128" x="151.5" y="1014.252">RESCAN_ALL_SSID</text><text fill="#000000" font-family="sans-serif" font-size="12" lengthAdjust="spacing" textLength="178" x="121.5" y="1039.7852">Rescan and update the SSID list</text></g><g id="WebServer.SSID.selectSSID"><rect fill="#FEFECE" filter="url(#f5a3r0tev2ff5)" height="52.7031" rx="12.5" ry="12.5" style="stroke:#A80036;stroke-width:1.5;" width="322" x="54.5" y="868.2188"/><line style="stroke:#A80036;stroke-width:1.5;" x1="54.5" x2="376.5" y1="895.8281" y2="895.8281"/><text fill="#000000" font-family="sans-serif" font-size="14" lengthAdjust="spacing" textLength="94" x="168.5" y="887.752">Select an SSID</text><text fill="#000000" font-family="sans-serif" font-size="12" lengthAdjust="spacing" textLength="302" x="59.5" y="913.2852">Select an SSID from the list and add it to wpa_suplicant</text></g><g id="WebServer.SSID.FORGET_ALL_SSID"><rect fill="#FEFECE" filter="url(#f5a3r0tev2ff5)" height="52.7031" rx="12.5" ry="12.5" style="stroke:#A80036;stroke-width:1.5;" width="219" x="38" y="1158.7188"/><line style="stroke:#A80036;stroke-width:1.5;" x1="38" x2="257" y1="1186.3281" y2="1186.3281"/><text fill="#000000" font-family="sans-serif" font-size="14" lengthAdjust="spacing" textLength="131" x="82" y="1178.252">FORGET_ALL_SSID</text><text fill="#000000" font-family="sans-serif" font-size="12" lengthAdjust="spacing" textLength="199" x="43" y="1203.7852">remove all SSID from wpa_suplicant</text></g><ellipse cx="485.5" cy="1185.2188" filter="url(#f5a3r0tev2ff5)" rx="10" ry="10" style="stroke:#000000;stroke-width:1.0;fill:none;"/><ellipse cx="486" cy="1185.7188" fill="#000000" rx="6" ry="6" style="stroke:none;stroke-width:1.0;"/><rect fill="#FEFECE" filter="url(#f5a3r0tev2ff5)" height="127.7031" rx="12.5" ry="12.5" style="stroke:#A80036;stroke-width:1.5;" width="169" x="367" y="957.2188"/><rect fill="#FFFFFF" height="74" rx="12.5" ry="12.5" style="stroke:#FFFFFF;stroke-width:1.0;" width="163" x="370" y="1007.9219"/><line style="stroke:#A80036;stroke-width:1.5;" x1="367" x2="536" y1="1004.9219" y2="1004.9219"/><line style="stroke:#A80036;stroke-width:1.5;" x1="367" x2="536" y1="984.8281" y2="984.8281"/><text fill="#000000" font-family="sans-serif" font-size="14" lengthAdjust="spacing" textLength="75" x="414" y="976.752">FlashGreen</text><text fill="#000000" font-family="sans-serif" font-size="12" lengthAdjust="spacing" textLength="144" x="372" y="997.2852">Flash Green before reboot</text><g id="WebServer.SSID.FlashGreen.FlashGreen_h"><rect fill="#00FF00" filter="url(#f5a3r0tev2ff5)" height="50" rx="12.5" ry="12.5" style="stroke:#00FF00;stroke-width:1.5;" width="50" x="379" y="1016.9219"/><line style="stroke:#00FF00;stroke-width:1.5;" x1="379" x2="429" y1="1044.5313" y2="1044.5313"/><text fill="#000000" font-family="sans-serif" font-size="14" lengthAdjust="spacing" textLength="0" x="406" y="1036.4551"/></g><rect fill="#FEFECE" filter="url(#f5a3r0tev2ff5)" height="127.7031" rx="12.5" ry="12.5" style="stroke:#A80036;stroke-width:1.5;" width="182" x="275.5" y="1121.2188"/><rect fill="#FFFFFF" height="74" rx="12.5" ry="12.5" style="stroke:#FFFFFF;stroke-width:1.0;" width="176" x="278.5" y="1171.9219"/><line style="stroke:#A80036;stroke-width:1.5;" x1="275.5" x2="457.5" y1="1168.9219" y2="1168.9219"/><line style="stroke:#A80036;stroke-width:1.5;" x1="275.5" x2="457.5" y1="1148.8281" y2="1148.8281"/><text fill="#000000" font-family="sans-serif" font-size="14" lengthAdjust="spacing" textLength="90" x="321.5" y="1140.752">FlashMagenta</text><text fill="#000000" font-family="sans-serif" font-size="12" lengthAdjust="spacing" textLength="157" x="280.5" y="1161.2852">Flash Magenta before reboot</text><g id="WebServer.SSID.FlashMagenta.FlashMagenta_h"><rect fill="#FF00FF" filter="url(#f5a3r0tev2ff5)" height="50" rx="12.5" ry="12.5" style="stroke:#FF00FF;stroke-width:1.5;" width="50" x="287.5" y="1180.9219"/><line style="stroke:#FF00FF;stroke-width:1.5;" x1="287.5" x2="337.5" y1="1208.5313" y2="1208.5313"/><text fill="#000000" font-family="sans-serif" font-size="14" lengthAdjust="spacing" textLength="0" x="314.5" y="1200.4551"/></g><!--MD5=[aa656bbe0d99d1f8ce3d9a260579c0f0]
link selectSSID to RESCAN_ALL_SSID--><!--MD5=[e6bdda6af39f0bdf816f2eb303bddcdc]
link RESCAN_ALL_SSID to FORGET_ALL_SSID--><!--MD5=[72ab928fc89cf35b1bb28379915f106c]
link RESCAN_ALL_SSID to FlashGreen--><path d="M314.6,1021.2188 C330.22,1021.2188 345.83,1021.2188 361.45,1021.2188 " fill="none" id="RESCAN_ALL_SSID-to-FlashGreen" style="stroke:#000000;stroke-width:1.0;"/><polygon fill="#000000" points="366.74,1021.2188,357.74,1017.2188,361.74,1021.2188,357.74,1025.2188,366.74,1021.2188" style="stroke:#000000;stroke-width:1.0;"/><!--MD5=[616aa4d7696de159f0c1e1a7161eefc7]
link FlashGreen to *end*SSID--><path d="M464.74,1085.3188 C471.23,1116.2288 478.49,1150.8088 482.47,1169.7888 " fill="none" id="FlashGreen-to-*end*SSID" style="stroke:#000000;stroke-width:1.0;"/><polygon fill="#000000" points="483.6,1175.1588,485.6601,1165.5278,482.5699,1170.266,477.8317,1167.1758,483.6,1175.1588" style="stroke:#000000;stroke-width:1.0;"/><!--MD5=[d2afe8d8a7e98fc927a0526ef0aafd21]
link FORGET_ALL_SSID to FlashMagenta--><path d="M257.43,1185.2188 C261.71,1185.2188 266,1185.2188 270.29,1185.2188 " fill="none" id="FORGET_ALL_SSID-to-FlashMagenta" style="stroke:#000000;stroke-width:1.0;"/><polygon fill="#000000" points="275.32,1185.2188,266.32,1181.2188,270.32,1185.2188,266.32,1189.2188,275.32,1185.2188" style="stroke:#000000;stroke-width:1.0;"/><!--MD5=[e528689d5eccac7833cf8b75ef625963]
link FlashMagenta to *end*SSID--><path d="M457.61,1185.2188 C461.89,1185.2188 466.17,1185.2188 470.45,1185.2188 " fill="none" id="FlashMagenta-to-*end*SSID" style="stroke:#000000;stroke-width:1.0;"/><polygon fill="#000000" points="475.48,1185.2188,466.48,1181.2188,470.48,1185.2188,466.48,1189.2188,475.48,1185.2188" style="stroke:#000000;stroke-width:1.0;"/><!--MD5=[51d2eaca1c4847c4e29d5c1ee378b6c4]
link ProfileManager to SSID--><!--MD5=[32a4b01bc1c67567ad0364b26462b08d]
link *start*Initializing to NoPower--><path d="M58.05,107 C67.92,107 77.79,107 87.66,107 " fill="none" id="*start*Initializing-to-NoPower" style="stroke:#000000;stroke-width:1.0;"/><polygon fill="#000000" points="92.82,107,83.82,103,87.82,107,83.82,111,92.82,107" style="stroke:#000000;stroke-width:1.0;"/><!--MD5=[1a104a0b8070795d743b799b443d60be]
link NoPower to Booting--><path d="M169.13,107 C200.23,107 245.44,107 285.57,107 " fill="none" id="NoPower-to-Booting" style="stroke:#000000;stroke-width:1.0;"/><polygon fill="#000000" points="290.94,107,281.94,103,285.94,107,281.94,111,290.94,107" style="stroke:#000000;stroke-width:1.0;"/><text fill="#000000" font-family="sans-serif" font-size="12" lengthAdjust="spacing" textLength="85" x="187.5" y="100.457">up to 3 minutes</text><!--MD5=[46c7d69a335c349e5c9aa69913f3d8b0]
link Booting to WPA_SSID--><path d="M375,171.15 C375,191.51 375,212.39 375,226.36 " fill="none" id="Booting-to-WPA_SSID" style="stroke:#000000;stroke-width:1.0;"/><polygon fill="#000000" points="375,231.54,379,222.54,375,226.54,371,222.54,375,231.54" style="stroke:#000000;stroke-width:1.0;"/><!--MD5=[af05234e66db760093c6c65c1b9c1d78]
link WPA_SSID to Access_MODE--><path d="M368.04,249.43 C356.99,256.57 334.97,271.34 318,286 C302.62,299.29 286.96,314.23 272.24,329.03 " fill="none" id="WPA_SSID-to-Access_MODE" style="stroke:#000000;stroke-width:1.0;"/><polygon fill="#000000" points="268.52,332.79,277.6908,329.1988,272.034,329.2331,271.9998,323.5764,268.52,332.79" style="stroke:#000000;stroke-width:1.0;"/><text fill="#000000" font-family="sans-serif" font-size="12" lengthAdjust="spacing" textLength="49" x="319" y="299.457">NO SSID</text><!--MD5=[1232060dafc0af187aa6f66db5fb4351]
link WPA_SSID to LAN_MODE--><path d="M375.52,255.89 C376.24,270.83 377.61,299.06 378.97,327.39 " fill="none" id="WPA_SSID-to-LAN_MODE" style="stroke:#000000;stroke-width:1.0;"/><polygon fill="#000000" points="379.23,332.68,382.7874,323.496,378.9867,327.6859,374.7969,323.8853,379.23,332.68" style="stroke:#000000;stroke-width:1.0;"/><text fill="#000000" font-family="sans-serif" font-size="12" lengthAdjust="spacing" textLength="74" x="378" y="299.457">FOUND SSID</text><!--MD5=[4422c8c9bad6cb2878a4a737b28483a8]
link Access_MODE to WebServer--><path d="M211.07,491.24 C214.97,512.91 219.47,537.94 224.3,564.81 " fill="none" id="Access_MODE-to-WebServer" style="stroke:#000000;stroke-width:1.0;"/><polygon fill="#000000" points="225.21,569.84,227.555,560.2744,224.3256,564.9188,219.6812,561.6894,225.21,569.84" style="stroke:#000000;stroke-width:1.0;"/><text fill="#000000" font-family="sans-serif" font-size="12" lengthAdjust="spacing" textLength="85" x="220" y="536.457">up to 2 minutes</text><!--MD5=[fc980153edcfabb4ccd8d281e38d6adc]
link LAN_MODE to WebServer--><path d="M368.62,491.24 C364.64,512.91 360.04,537.94 355.1,564.81 " fill="none" id="LAN_MODE-to-WebServer" style="stroke:#000000;stroke-width:1.0;"/><polygon fill="#000000" points="354.18,569.84,359.7359,561.7078,355.0807,564.9218,351.8667,560.2667,354.18,569.84" style="stroke:#000000;stroke-width:1.0;"/><text fill="#000000" font-family="sans-serif" font-size="12" lengthAdjust="spacing" textLength="85" x="363" y="536.457">up to 2 minutes</text><!--MD5=[dcb704cd86335732eade1918d63c51ef]
@startuml
!include <archimate/Archimate>


state Initializing {
[*] -> NoPower

NoPower -> Booting : up to 3 minutes
state WPA_SSID <<choice>>
state Booting {
  state " " as Booting_h #ff0000 ##ff0000
}
Booting: Intializing python and flask
Booting - -> WPA_SSID 
WPA_SSID - -> Access_MODE : NO SSID
state Access_MODE {
Access_MODE : 10.0.0.5\n(cattoiio.local)\n(cattoiio.lan)
state " " as Access_Mode_h #ff00ff ##ff00ff
state " " as Access_Mode_l #800080 ##800080
Access_Mode_h  -> Access_Mode_l
Access_Mode_h  <- Access_Mode_l
}
WPA_SSID - -> LAN_MODE: FOUND SSID
state LAN_MODE {
  LAN_MODE: 192.168.x.x\n(cattoiio.local)\n(cattoiio.lan)
  state " " as LAN_MODE_h #00ff00 ##00ff00
  state " " as LAN_MODE_l #008000 ##008000
LAN_MODE_h -> LAN_MODE_l 
LAN_MODE_h <- LAN_MODE_l 
}
}


state WebServer as "Cattoi.io Webserver" {

  state ProfileManager as "Profile Manager" {
    state Shift {
      Shift: Shift pattern left and right
      state " " as Shift_h #0000ff ##0000ff
    }
    state Peek {
      Peek: Fade in and out randomly
      state " " as Peek_h #00ffff ##00ffff
    }

    state Off {
      Off: Blink Red
      state " " as Off_h #ff0000 ##ff0000
      state " " as Off_l #800000 ##800000
      Off_h -> Off_l 
      LAN_MODE_h <- LAN_MODE_l 
    }
  }
  state SSID {
    RESCAN_ALL_SSID: Rescan and update the SSID list
    state "Select an SSID" as selectSSID
        selectSSID: Select an SSID from the list and add it to wpa_suplicant
    state FlashGreen {
      FlashGreen : Flash Green before reboot
      state " " as FlashGreen_h #00FF00 ##00FF00
    }
    FORGET_ALL_SSID: remove all SSID from wpa_suplicant
    state FlashMagenta {
      FlashMagenta: Flash Magenta before reboot
      state " " as FlashMagenta_h #FF00FF ##FF00FF
    }
    
    selectSSID -down[hidden]-> RESCAN_ALL_SSID
    RESCAN_ALL_SSID-down[hidden]-> FORGET_ALL_SSID
    RESCAN_ALL_SSID -> FlashGreen
    FlashGreen-> [*]
    FORGET_ALL_SSID -> FlashMagenta
    FlashMagenta -> [*]
  }  
  ProfileManager -down[hidden]-> SSID
}
Access_MODE - -> WebServer : up to 2 minutes
LAN_MODE - -> WebServer : up to 2 minutes
@enduml

@startuml


skinparam defaultTextAlignment center
skinparam wrapWidth 400
skinparam maxMessageSize 150
skinparam StereotypeAlignment right

skinparam Arrow {
    Color #000000
    FontColor #000000
    FontSize 12
}
skinparam Folder<<grouping>> {
    Shadowing true
    StereotypeFontSize 0
    FontColor #444444
    BorderColor #444444
    BorderStyle dashed
}
skinparam Folder<<group>> {
    Shadowing true
    StereotypeFontSize 0
    FontColor #444444
    BackgroundColor lightgrey
}
skinparam rectangle<<boundary>> {
    Shadowing false
    StereotypeFontSize 0
    FontColor #444444
    BorderColor #444444
    BorderStyle dashed
}
skinparam node {
  StereotypeAlignment right
}
skinparam cloud {
  StereotypeAlignment right
}
skinparam frame {
  StereotypeAlignment right
}
skinparam archimate {
  StereotypeAlignment right
  RoundCorner<<strategy-capability>> 25
  RoundCorner<<strategy-course-of-action>> 25
  RoundCorner<<strategy-value-stream>> 25
  RoundCorner<<business-process>> 25
  RoundCorner<<business-event>> 25
  RoundCorner<<business-function>> 25
  RoundCorner<<business-interaction>> 25
  RoundCorner<<business-event>> 25
  RoundCorner<<business-service>> 25
  RoundCorner<<application-function>> 25
  RoundCorner<<application-interaction>> 25
  RoundCorner<<application-process>> 25
  RoundCorner<<application-event>> 25
  RoundCorner<<application-service>> 25
  RoundCorner<<technology-function>> 25
  RoundCorner<<technology-process>> 25
  RoundCorner<<technology-interaction>> 25
  RoundCorner<<technology-event>> 25
  RoundCorner<<technology-infra-service>> 25
  RoundCorner<<implementation-workpackage>> 25
  RoundCorner<<implementation-event>> 25
  DiagonalCorner<<motivation-stakeholder>> 12
  DiagonalCorner<<motivation-driver>> 12
  DiagonalCorner<<motivation-assessment>> 12
  DiagonalCorner<<motivation-goal>> 12
  DiagonalCorner<<motivation-outcome>> 12
  DiagonalCorner<<motivation-principle>> 12
  DiagonalCorner<<motivation-requirement>> 12
  DiagonalCorner<<motivation-constraint>> 12
}
skinparam usecase {
  BorderColor #000000
}






























state Initializing {
[*] -> NoPower

NoPower -> Booting : up to 3 minutes
state WPA_SSID <<choice>>
state Booting {
  state " " as Booting_h #ff0000 ##ff0000
}
Booting: Intializing python and flask
Booting - -> WPA_SSID 
WPA_SSID - -> Access_MODE : NO SSID
state Access_MODE {
Access_MODE : 10.0.0.5\n(cattoiio.local)\n(cattoiio.lan)
state " " as Access_Mode_h #ff00ff ##ff00ff
state " " as Access_Mode_l #800080 ##800080
Access_Mode_h  -> Access_Mode_l
Access_Mode_h  <- Access_Mode_l
}
WPA_SSID - -> LAN_MODE: FOUND SSID
state LAN_MODE {
  LAN_MODE: 192.168.x.x\n(cattoiio.local)\n(cattoiio.lan)
  state " " as LAN_MODE_h #00ff00 ##00ff00
  state " " as LAN_MODE_l #008000 ##008000
LAN_MODE_h -> LAN_MODE_l 
LAN_MODE_h <- LAN_MODE_l 
}
}


state WebServer as "Cattoi.io Webserver" {

  state ProfileManager as "Profile Manager" {
    state Shift {
      Shift: Shift pattern left and right
      state " " as Shift_h #0000ff ##0000ff
    }
    state Peek {
      Peek: Fade in and out randomly
      state " " as Peek_h #00ffff ##00ffff
    }

    state Off {
      Off: Blink Red
      state " " as Off_h #ff0000 ##ff0000
      state " " as Off_l #800000 ##800000
      Off_h -> Off_l 
      LAN_MODE_h <- LAN_MODE_l 
    }
  }
  state SSID {
    RESCAN_ALL_SSID: Rescan and update the SSID list
    state "Select an SSID" as selectSSID
        selectSSID: Select an SSID from the list and add it to wpa_suplicant
    state FlashGreen {
      FlashGreen : Flash Green before reboot
      state " " as FlashGreen_h #00FF00 ##00FF00
    }
    FORGET_ALL_SSID: remove all SSID from wpa_suplicant
    state FlashMagenta {
      FlashMagenta: Flash Magenta before reboot
      state " " as FlashMagenta_h #FF00FF ##FF00FF
    }
    
    selectSSID -down[hidden]-> RESCAN_ALL_SSID
    RESCAN_ALL_SSID-down[hidden]-> FORGET_ALL_SSID
    RESCAN_ALL_SSID -> FlashGreen
    FlashGreen-> [*]
    FORGET_ALL_SSID -> FlashMagenta
    FlashMagenta -> [*]
  }  
  ProfileManager -down[hidden]-> SSID
}
Access_MODE - -> WebServer : up to 2 minutes
LAN_MODE - -> WebServer : up to 2 minutes
@enduml

PlantUML version 1.2021.16(Wed Dec 08 12:25:22 EST 2021)
(GPL source distribution)
Java Runtime: Java(TM) SE Runtime Environment
JVM: Java HotSpot(TM) Client VM
Default Encoding: Cp1252
Language: en
Country: US
--></g></svg>